<?xml version="1.0" encoding="UTF-8"?>
<svg id="logo_principal" data-name="logo principal" xmlns="http://www.w3.org/2000/svg" viewBox="0 0 1538 1009.88">
  <defs>
    <style>
      .cls-1 {
        stroke-width: 8px;
      }

      .cls-1, .cls-2 {
        fill: none;
        stroke: #f15e12;
        stroke-linecap: round;
        stroke-linejoin: round;
      }

      .cls-3 {
        fill: #0c3159;
        stroke-width: 0px;
      }

      .cls-2 {
        stroke-width: 10px;
      }
    </style>
  </defs>
  <path class="cls-3" d="M257,257h109c74.34,0,126.32,25.15,126.32,89.43,0,36.33-20.68,68.75-64.28,79.93v2.24c53.66,8.38,84.96,37.45,84.96,87.76,0,72.1-57.01,107.32-138.62,107.32h-117.38v-366.67ZM358.17,413.51c62.04,0,88.31-22.36,88.31-63.16s-29.62-56.45-86.08-56.45h-56.45v119.62h54.22ZM367.67,586.78c62.6,0,99.49-22.92,99.49-72.66,0-45.28-35.21-65.96-99.49-65.96h-63.72v138.62h63.72Z"/>
  <g>
    <polyline class="cls-2" points="549.57 447.18 659.21 264.01 768.95 446.91 878.69 264.01 988.43 446.91"/>
    <polyline class="cls-2" points="659.21 617.61 768.95 446.91 878.69 617.61"/>
    <polyline class="cls-1" points="586.05 446.91 660.05 326.83 732.37 446.91 659.21 556.65"/>
    <polyline class="cls-1" points="951.85 446.91 878.69 326.83 805.53 446.91 878.69 556.65"/>
  </g>
  <g>
    <path class="cls-3" d="M616.88,690.08c9.17,0,15.35,3.84,19.36,7.58l-4.94,4.96c-3.4-3.28-7.62-5.71-14.32-5.71-13.7,0-22.45,9.55-22.45,24.81s8.03,25.19,22.45,25.19c4.84,0,9.58-1.4,12.26-3.65v-16.01h-14.32v-6.46h22.14v25.84c-4.43,3.93-11.95,7.12-21.01,7.12-17.71,0-30.38-11.8-30.38-31.83s13.08-31.83,31.21-31.83Z"/>
    <path class="cls-3" d="M705.15,752.62l-16.27-25.93h-12.15v25.93h-8.65v-61.42h21.22c13.7,0,23.59,4.49,23.59,17.23,0,9.55-5.97,15.26-15.14,17.42l17.2,26.78h-9.78ZM676.72,720.32h11.33c10.51,0,16.27-3.93,16.27-11.89s-5.77-10.95-16.27-10.95h-11.33v22.84Z"/>
    <path class="cls-3" d="M738.93,721.63c0-19.66,11.95-31.55,28.94-31.55s28.84,11.98,28.84,31.55-11.95,32.11-28.84,32.11-28.94-12.36-28.94-32.11ZM787.85,721.63c0-15.26-7.93-24.72-19.98-24.72s-20.08,9.46-20.08,24.72,7.93,25.28,20.08,25.28,19.98-9.92,19.98-25.28Z"/>
    <path class="cls-3" d="M825.85,691.2h8.65v36.23c0,14.79,6.9,19.47,15.66,19.47s16.07-4.68,16.07-19.47v-36.23h8.24v36.05c0,19.76-10.51,26.5-24.31,26.5s-24.31-6.74-24.31-26.5v-36.05Z"/>
    <path class="cls-3" d="M907.53,691.2h20.8c14.93,0,24.93,4.59,24.93,18.07s-10.2,19.01-24.93,19.01h-12.15v24.34h-8.65v-61.42ZM927.2,721.91c11.84,0,17.51-3.93,17.51-12.64s-5.87-11.8-17.51-11.8h-11.02v24.44h11.02Z"/>
  </g>
  <path class="cls-3" d="M1226.94,622.68l-87.86-154.02h-65.61v154.02h-46.71v-364.77h114.54c73.95,0,127.33,26.69,127.33,102.31,0,56.72-32.25,90.63-81.74,103.42l92.86,159.03h-52.82ZM1073.48,430.84h61.17c56.72,0,87.85-23.35,87.85-70.62s-31.14-65.06-87.85-65.06h-61.17v135.67Z"/>
</svg>